#!OML:ASF H:\Terrain\Patient Classification 1\Terrain2\Thursday\justin.ASF
:FULLY-SPECIFIED
:DEGREES
3212
root 7.94789 24.3476 7.38234 -5.90368 4.4531 -7.29566
lowerback 4.9949 -0.260717 6.5016
upperback 1.41899 0.0865362 5.99439
thorax -1.33763 0.0374661 2.54917
lowerneck -9.28814 -3.42002 -10.09
upperneck 42.4635 -4.08515 3.83066
head 17.5559 -2.74424 2.91997
rclavicle -4.98204e-015 3.18055e-014
rhumerus -31.447 -16.3077 -72.3429
rradius 23.0357
rwrist -8.91675
rhand -24.393 12.3079
rfingers 7.12502
rthumb 2.09782 -17.6615
lclavicle -4.98204e-015 3.18055e-014
lhumerus -37.9024 9.77498 87.1908
lradius 23.0877
lwrist -2.92367
lhand -18.9694 17.3076
lfingers 7.12502
lthumb 7.33473 47.1604
rfemur 2.36988 -7.58982 30.3574
rtibia 11.9969
rfoot -3.49828 1.26085
rtoes 18.3387
lfemur -6.90261 -3.96487 -3.59174
ltibia 86.2034
lfoot -11.7042 -19.5455
ltoes -1.39452
3213
root 7.94821 24.3774 7.44367 -5.90661 4.35827 -7.45608
lowerback 5.07421 -0.192143 6.84818
upperback 1.51576 0.196728 6.05325
thorax -1.27979 0.0942358 2.41172
lowerneck -9.31045 -3.45882 -10.2349
upperneck 42.4564 -4.18297 4.03154
head 17.5807 -2.77935 3.02382
rclavicle -2.70417e-015 1.27222e-014
rhumerus -30.8809 -16.6247 -72.208
rradius 23.3918
rwrist -7.71264
rhand -23.3187 12.2096
rfingers 7.12502
rthumb 3.13534 -17.7471
lclavicle -2.70417e-015 1.27222e-014
lhumerus -37.7299 9.04501 87.782
lradius 23.5814
lwrist -2.31656
lhand -19.737 16.3046
lfingers 7.12502
lthumb 6.59367 46.182
rfemur 2.96708 -7.56841 30.513
rtibia 11.1963
rfoot -3.13818 1.23076
rtoes 18.9133
lfemur -8.04106 -3.57568 -3.2437
ltibia 87.2631
lfoot -12.5015 -19.7085
ltoes -5.24286
3214
root 7.95192 24.4005 7.50549 -6.02088 4.24277 -7.57441
lowerback 5.34954 -0.151145 7.20932
upperback 1.5375 0.300428 6.06036
thorax -1.40827 0.143291 2.21359
lowerneck -9.14212 -3.46541 -10.4389
upperneck 42.447 -4.28301 4.33866
head 17.5602 -2.81377 3.18932
rclavicle -6.02139e-015 -6.36111e-015
rhumerus -30.7104 -16.418 -72.2474
rradius 24.2017
rwrist -6.51592
rhand -22.2415 11.8407
rfingers 7.12502
rthumb 4.17556 -18.0981
lclavicle -6.02139e-015 -6.36111e-015
lhumerus -37.8583 8.53919 88.0758
lradius 24.1973
lwrist -2.3105
lhand -19.4728 16.5899
lfingers 7.12502
lthumb 6.84873 46.4591
rfemur 3.55425 -7.59657 30.5804
rtibia 10.6633
rfoot -2.74713 1.17912
rtoes 20.4513
lfemur -9.04107 -3.08937 -3.0217
ltibia 88.1132
lfoot -13.3792 -19.9713
ltoes -11.6871
3215
root 7.95224 24.4203 7.55783 -5.99916 4.07094 -7.50195
lowerback 5.65216 -0.0467367 7.35657
upperback 1.50127 0.485966 6.01542
thorax -1.61109 0.230565 2.07338
lowerneck -9.07554 -3.47275 -10.3377
upperneck 42.5564 -4.28754 4.24243
head 17.601 -2.81297 3.12978
rclavicle -4.45091e-015 -4.29375e-014
rhumerus -30.6184 -15.6994 -72.5471
rradius 25.2344
rwrist -6.60324
rhand -21.8283 11.3453
rfingers 7.12502
rthumb 4.57453 -18.5853
lclavicle -4.45091e-015 -4.29375e-014
lhumerus -37.9864 8.01636 88.3254
lradius 24.7449
lwrist -2.09897
lhand -19.2187 17.0096
lfingers 7.12502
lthumb 7.09406 46.8707
rfemur 3.88634 -7.26195 30.5391
rtibia 10.3583
rfoot -2.62925 1.06554
rtoes 20.4773
lfemur -10.2415 -2.42381 -3.01283
ltibia 88.8099
lfoot -13.4863 -20.5493
ltoes -14.3607
3216
root 7.95222 24.4374 7.60482 -5.82585 3.93887 -7.27483
lowerback 5.72407 0.0805828 7.33287
upperback 1.53865 0.656734 5.92072
thorax -1.6086 0.315995 1.97545
lowerneck -9.12423 -3.4954 -10.11
upperneck 42.5602 -4.26398 3.98174
head 17.5956 -2.7974 2.97036
rclavicle -5.80824e-015 2.70347e-014
rhumerus -30.3017 -15.3722 -72.8193
rradius 26.1161
rwrist -7.24917
rhand -21.626 11.8289
rfingers 7.12502
rthumb 4.76993 -18.0974
lclavicle -5.80824e-015 2.70347e-014
lhumerus -37.8582 7.6241 88.4913
lradius 25.1789
lwrist -2.07843
lhand -19.3986 17.1286
lfingers 7.12502
lthumb 6.92036 46.9955
rfemur 4.04079 -6.96 30.3504
rtibia 10.0578
rfoot -2.7524 0.833251
rtoes 21.5486
lfemur -11.4239 -1.89845 -3.22966
ltibia 89.41
lfoot -13.319 -21.4067
ltoes -13.1179
3217
root 7.95475 24.4562 7.65719 -5.71171 3.86506 -7.24828
lowerback 5.74615 0.1075 7.47965
upperback 1.5883 0.698409 5.90008
thorax -1.5662 0.337935 1.86981
lowerneck -8.97233 -3.47187 -10.2364
upperneck 42.3593 -4.27293 4.14752
head 17.448 -2.79588 3.06453
rclavicle -1.37907e-015 -1.74931e-014
rhumerus -29.8125 -14.4503 -73.354
rradius 26.8812
rwrist -8.88318
rhand -21.8196 12.9571
rfingers 7.12502
rthumb 4.58295 -16.9733
lclavicle -1.37907e-015 -1.74931e-014
lhumerus -37.8066 7.35467 88.6442
lradius 25.6384
lwrist -1.98595
lhand -19.6503 17.1315
lfingers 7.12502
lthumb 6.67744 47.0063
rfemur 4.21457 -7.09071 30.2931
rtibia 9.73319
rfoot -2.97256 1.35273
rtoes 17.928
lfemur -12.3901 -1.4358 -3.20984
ltibia 89.8521
lfoot -12.8555 -22.6267
ltoes -9.17102
3218
root 7.95527 24.4702 7.70847 -5.78387 3.63899 -7.81761
lowerback 6.07015 0.0841386 8.1948
upperback 1.56568 0.756296 6.05874
thorax -1.76186 0.359866 1.63651
lowerneck -8.78427 -3.41868 -10.3358
upperneck 42.2032 -4.20908 4.21118
head 17.3062 -2.7755 3.11932
rclavicle 1.98785e-015 -5.40694e-014
rhumerus -29.5503 -13.1652 -73.9203
rradius 27.8256
rwrist -10.3797
rhand -21.9888 13.2744
rfingers 7.12502
rthumb 4.41959 -16.6595
lclavicle 1.98785e-015 -5.40694e-014
lhumerus -38.0081 6.88511 88.9195
lradius 26.2189
lwrist -1.05421
lhand -19.6975 17.307
lfingers 7.12502
lthumb 6.63185 47.1831
rfemur 4.53425 -7.16453 30.9218
rtibia 9.39964
rfoot -2.95302 1.53055
rtoes 17.3819
lfemur -13.3148 -0.617931 -2.33565
ltibia 90.2061
lfoot -12.9157 -23.6588
ltoes -8.03587
3219
root 7.9537 24.4759 7.75234 -5.7463 3.29905 -7.95441
lowerback 6.26723 0.148656 8.39874
upperback 1.63751 0.874912 6.14655
thorax -1.79156 0.418415 1.60665
lowerneck -9.00378 -3.38226 -10.3096
upperneck 42.2506 -4.0728 4.06479
head 17.3707 -2.73297 3.06944
rclavicle 1.27968e-015 7.63333e-014
rhumerus -29.2783 -12.2578 -74.2764
rradius 28.9202
rwrist -11.105
rhand -21.8006 13.2379
rfingers 7.12502
rthumb 4.60128 -16.6921
lclavicle 1.27968e-015 7.63333e-014
lhumerus -37.9632 6.57115 89.136
lradius 26.7511
lwrist -0.112264
lhand -19.3414 18.073
lfingers 7.12502
lthumb 6.9756 47.9381
rfemur 5.04138 -7.07091 31.1552
rtibia 8.67129
rfoot -1.75983 0.623176
rtoes 23.7594
lfemur -14.3287 0.312646 -2.03373
ltibia 90.4983
lfoot -13.8347 -24.1815
ltoes -10.5215
3220
root 7.95925 24.4745 7.79301 -5.51204 3.11119 -7.53805
lowerback 6.14352 0.270001 8.08991
upperback 1.77074 0.985201 6.07862
thorax -1.58398 0.481263 1.69804
lowerneck -9.29731 -3.37239 -10.3065
upperneck 42.3322 -4.00549 4.02844
head 17.4867 -2.70749 3.06454
rclavicle -2.41026e-015 -3.33958e-014
rhumerus -28.7803 -11.5642 -74.5528
rradius 29.8719
rwrist -11.5184
rhand -21.6315 13.3384
rfingers 7.12502
rthumb 4.76462 -16.588
lclavicle -2.41026e-015 -3.33958e-014
lhumerus -37.6842 6.37168 89.3141
lradius 27.1249
lwrist 0.695783
lhand -19.1908 18.1402
lfingers 7.12502
lthumb 7.12096 48.0004
rfemur 5.73602 -7.03604 30.7495
rtibia 7.30073
rfoot -3.02027 2.04226
rtoes 9.24153
lfemur -15.4995 1.04719 -2.59317
ltibia 90.6676
lfoot -14.3006 -24.6049
ltoes -12.0896
3221
root 7.96919 24.4612 7.83315 -5.31513 3.07977 -7.60597
lowerback 6.10843 0.303955 8.34087
upperback 1.79988 1.03829 6.0918
thorax -1.52759 0.509208 1.57024
lowerneck -9.37496 -3.37687 -10.1839
upperneck 42.2579 -3.96399 3.86359
head 17.4492 -2.68825 2.96984
rclavicle -2.13445e-014 -6.36111e-015
rhumerus -28.3424 -10.8901 -74.8617
rradius 30.6514
rwrist -11.8339
rhand -21.7262 13.3403
rfingers 7.12502
rthumb 4.67314 -16.5881
lclavicle -2.13445e-014 -6.36111e-015
lhumerus -37.5882 6.24538 89.4138
lradius 27.4389
lwrist 1.17198
lhand -19.2319 17.8477
lfingers 7.12502
lthumb 7.08133 47.7092
rfemur 6.50519 -7.20395 30.8396
rtibia 5.73623
rfoot -0.880892 0.739261
rtoes 17.7013
lfemur -16.7708 1.76014 -2.61843
ltibia 90.7755
lfoot -14.5784 -24.9186
ltoes -12.8181
3222
root 7.97526 24.4581 7.87882 -5.19152 3.03076 -7.71597
lowerback 6.25072 0.327749 8.62002
upperback 1.76578 1.11018 6.12648
thorax -1.6353 0.540926 1.44674
lowerneck -9.46485 -3.38102 -10.1964
upperneck 42.2075 -3.92132 3.78808
head 17.4376 -2.67957 2.94216
rclavicle 2.54941e-014 7.31528e-014
rhumerus -28.139 -10.1166 -75.0901
rradius 31.4789
rwrist -12.3863
rhand -21.8792 13.7598
rfingers 7.12502
rthumb 4.52542 -16.1719
lclavicle 2.54941e-014 7.31528e-014
lhumerus -37.6186 6.2305 89.4317
lradius 27.7596
lwrist 1.24936
lhand -19.1303 18.2678
lfingers 7.12502
lthumb 7.17934 48.126
rfemur 7.13889 -7.37233 30.9759
rtibia 4.56956
rfoot -1.09461 1.43846
rtoes 10.0517
lfemur -17.8976 2.45354 -2.62149
ltibia 90.6846
lfoot -15.0114 -25.1492
ltoes -14.0985
3223
root 7.98045 24.4672 7.92833 -5.10864 2.844 -7.39029
lowerback 6.49561 0.460953 8.50936
upperback 1.72594 1.3139 6.0189
thorax -1.80655 0.636669 1.37715
lowerneck -9.35877 -3.39999 -10.3404
upperneck 42.0841 -3.97346 3.9255
head 17.3536 -2.70223 3.02074
rclavicle -9.44227e-016 -1.27222e-014
rhumerus -28.1162 -9.40719 -75.2231
rradius 32.4994
rwrist -13.0993
rhand -21.855 14.5045
rfingers 7.12502
rthumb 4.54882 -15.4266
lclavicle -9.44227e-016 -1.27222e-014
lhumerus -37.6839 5.8978 89.5022
lradius 28.0609
lwrist 1.61153
lhand -19.2704 18.4785
lfingers 7.12502
lthumb 7.04412 48.3413
rfemur 7.70417 -7.37512 30.6344
rtibia 3.71221
rfoot -0.20561 1.06702
rtoes 13.6272
lfemur -18.7954 3.06303 -3.19716
ltibia 90.3121
lfoot -14.6299 -25.5945
ltoes -12.7801
3224
root 7.98368 24.4674 7.97368 -5.1105 2.58452 -6.95533
lowerback 6.79469 0.564039 8.20521
upperback 1.74928 1.4635 5.89601
thorax -1.9487 0.708019 1.40065
lowerneck -9.19659 -3.3532 -10.3151
upperneck 41.907 -3.9148 3.90924
head 17.2002 -2.67216 3.01454
rclavicle 2.37051e-014 8.74653e-014
rhumerus -27.8904 -8.86974 -75.4113
rradius 33.4068
rwrist -13.3334
rhand -21.7031 15.1477
rfingers 7.12502
rthumb 4.69549 -14.7802
lclavicle 2.37051e-014 8.74653e-014
lhumerus -37.7343 5.60756 89.5273
lradius 28.3132
lwrist 2.08078
lhand -19.5284 18.4477
lfingers 7.12502
lthumb 6.79507 48.3187
rfemur 7.95238 -7.31414 30.1892
rtibia 3.69298
rfoot -1.16738 1.77784
rtoes 7.79669
lfemur -19.4596 3.71473 -3.8805
ltibia 89.7683
lfoot -14.1603 -25.8483
ltoes -10.9566
3225
root 7.98509 24.4633 8.01318 -5.14632 2.34578 -7.04153
lowerback 7.10945 0.550696 8.39674
upperback 1.84454 1.49054 5.91498
thorax -2.0194 0.720022 1.30958
lowerneck -9.44313 -3.24747 -10.1854
upperneck 41.9959 -3.72312 3.8228
head 17.2856 -2.5846 2.98487
rclavicle -1.98785e-016 3.49861e-014
rhumerus -27.4134 -8.51433 -75.6646
rradius 34.1819
rwrist -13.4317
rhand -21.351 15.6306
rfingers 7.12502
rthumb 5.03544 -14.2895
lclavicle -1.98785e-016 3.49861e-014
lhumerus -37.631 5.67887 89.3944
lradius 28.581
lwrist 2.31908
lhand -19.4245 18.8023
lfingers 7.12502
lthumb 6.89536 48.67
rfemur 7.65407 -7.3251 30.3112
rtibia 4.69677
rfoot -2.50924 2.2557
rtoes 3.73449
lfemur -20.1691 4.41013 -3.90621
ltibia 89.1802
lfoot -14.1512 -25.9904
ltoes -11.2259
3226
root 7.99219 24.4562 8.05063 -4.99666 2.14643 -7.65898
lowerback 7.25946 0.506541 9.27022
upperback 1.87649 1.51452 6.01765
thorax -2.04726 0.728184 0.934346
lowerneck -9.82201 -3.13967 -10.0513
upperneck 42.1275 -3.52933 3.77405
head 17.4317 -2.49102 2.97333
rclavicle -6.95746e-016 2.8625e-014
rhumerus -26.9767 -8.14943 -75.9229
rradius 34.9923
rwrist -13.9289
rhand -20.9805 15.2608
rfingers 7.12502
rthumb 5.39313 -14.6506
lclavicle -6.95746e-016 2.8625e-014
lhumerus -37.4878 5.83905 89.2032
lradius 28.838
lwrist 2.56855
lhand -19.369 18.9257
lfingers 7.12502
lthumb 6.94898 48.7916
rfemur 7.0108 -7.38455 31.0073
rtibia 5.86022
rfoot -3.81651 2.59927
rtoes 0.919694
lfemur -21.1798 5.06795 -3.34812
ltibia 88.5567
lfoot -14.1633 -26.0198
ltoes -10.4797
